<?xml version="1.0" standalone="no"?>
<!DOCTYPE svg PUBLIC "-//W3C//DTD SVG 20010904//EN"
 "http://www.w3.org/TR/2001/REC-SVG-20010904/DTD/svg10.dtd">
<svg version="1.0" xmlns="http://www.w3.org/2000/svg"
 width="512.000000pt" height="512.000000pt" viewBox="0 0 512.000000 512.000000"
 preserveAspectRatio="xMidYMid meet">

<g transform="translate(0.000000,512.000000) scale(0.100000,-0.100000)"
fill="#000000" stroke="none">
<path d="M4865 5113 c-829 -41 -971 -50 -992 -63 -12 -8 -312 -339 -665 -737
-354 -397 -645 -722 -648 -722 -3 0 -294 324 -648 720 -353 395 -653 726 -666
734 -18 12 -122 20 -512 40 -614 31 -647 31 -685 5 -15 -12 -32 -35 -37 -53
-6 -20 1 -234 19 -584 23 -468 30 -557 45 -580 9 -16 353 -329 765 -698 412
-368 747 -673 746 -676 -1 -4 -85 -98 -185 -209 l-184 -201 -53 50 c-110 104
-138 99 -303 -62 -144 -141 -182 -189 -182 -229 0 -46 14 -65 143 -195 l121
-123 -435 -437 c-474 -477 -479 -484 -501 -617 -22 -130 20 -255 118 -353 91
-92 224 -136 345 -114 135 23 136 24 611 499 l437 436 133 -130 c79 -78 143
-133 158 -136 55 -10 84 10 238 165 142 143 152 156 152 191 0 47 -11 69 -67
129 -24 26 -43 51 -41 56 2 5 108 102 236 216 l233 208 32 -30 c18 -16 120
-108 227 -203 107 -95 199 -176 204 -181 5 -4 -15 -34 -46 -68 -59 -63 -74
-103 -57 -149 12 -32 271 -297 313 -319 58 -30 89 -13 231 128 l130 129 425
-426 c234 -233 446 -438 471 -454 170 -110 410 -69 538 92 101 125 116 300 40
450 -14 28 -173 195 -457 480 l-436 438 132 134 c121 123 132 137 132 171 0
20 -5 46 -11 58 -16 31 -269 286 -301 303 -58 30 -96 17 -179 -63 l-46 -44
-184 206 c-101 114 -185 210 -186 213 -1 4 336 309 749 677 412 369 756 682
764 697 10 20 21 156 39 515 30 587 31 641 9 672 -22 30 -74 52 -121 49 -21
-1 -69 -4 -108 -5z m-4082 -252 c346 -17 348 -17 371 -41 13 -14 290 -324 616
-690 326 -366 602 -675 613 -687 l20 -22 -129 -145 -129 -144 -245 243 c-184
183 -253 245 -276 250 -93 19 -169 -89 -116 -165 9 -14 124 -131 255 -260
l238 -235 -126 -142 c-70 -79 -130 -143 -133 -143 -15 0 -1467 1303 -1469
1318 -4 24 -43 813 -43 856 l0 36 103 -6 c56 -3 258 -14 450 -23z m4103 -28
c-4 -32 -13 -213 -21 -403 -9 -190 -18 -369 -21 -397 l-5 -53 -787 -703
c-1097 -980 -2121 -1887 -2130 -1887 -4 0 -50 43 -102 95 l-95 95 942 943
c517 518 946 952 952 964 23 45 10 99 -33 135 -24 20 -86 24 -119 7 -12 -6
-445 -434 -962 -950 l-940 -939 -98 98 -98 98 99 109 c260 291 2513 2795 2515
2796 2 1 746 41 880 48 l28 1 -5 -57z m-1302 -2727 l159 -177 -99 -100 -99
-99 -207 207 c-115 114 -207 211 -206 215 2 4 53 53 113 107 l110 100 35 -38
c19 -21 107 -117 194 -215z m-406 -319 l212 -212 -99 -99 -99 -99 -232 208
c-127 114 -229 212 -228 216 3 10 219 197 228 198 3 1 101 -95 218 -212z
m-1685 -295 l448 -448 -52 -43 -51 -44 -444 444 -444 444 47 47 c26 27 47 48
48 48 0 0 202 -202 448 -448z m2230 -93 l-448 -446 -48 46 -47 46 447 447 448
448 48 -48 48 -47 -448 -446z m-2446 -381 c-51 -48 -97 -87 -102 -88 -6 0 -68
58 -138 128 l-129 129 99 91 98 91 132 -131 132 -132 -92 -88z m2795 30 l-132
-133 -97 98 -98 98 135 129 135 129 95 -94 95 -95 -133 -132z m351 -350 l-133
-133 -100 100 -100 100 132 132 133 133 100 -100 100 -100 -132 -132z m-3528
192 l129 -129 -100 -95 c-54 -52 -104 -95 -109 -96 -6 0 -66 56 -135 125
l-125 125 100 100 c55 55 102 100 105 100 3 0 63 -58 135 -130z m-307 -555
c-80 -76 -114 -95 -171 -97 -99 -2 -177 78 -177 181 0 67 18 102 93 179 l62
62 130 -130 130 -131 -67 -64z m4216 244 c65 -71 86 -112 86 -173 0 -38 -36
-112 -58 -120 -9 -4 -33 -16 -52 -26 -45 -26 -119 -26 -168 -1 -20 11 -64 47
-97 81 l-60 62 130 124 c72 68 135 124 142 124 6 0 41 -32 77 -71z"/>
</g>
</svg>
